# xmcd
#
# Track frame offsets:
#	150
#	18416
#	43915
#	65220
#	78925
#	100713
#	132502
#	149407
#	172831
#	188579
#	217960
#
# Disc length: 3162 seconds
#
# Revision: 1
# Processed by: cddbd v1.5.2PL0 Copyright (c) Steve Scherf et al.
# Submitted via: audiograbber 1.83.01
#
DISCID=970c580b
DTITLE=Blue Holger D - Sort og fuld af skår
DYEAR=2011
DGENRE=Blues
TTITLE0=Internetdating
TTITLE1=Sådan er min kærlighed
TTITLE2=6 5 6 7 8 9
TTITLE3=Du er mit Solstrejf
TTITLE4=Er ude af drift
TTITLE5=Hun var crazy 
TTITLE6=Hvis du går forbi mit hus
TTITLE7=Jeg kyssede en anden 
TTITLE8=Maibritt
TTITLE9=En blues for dig
TTITLE10=Kald mig dum ja
EXTD=Blues in Danish\nBlues med danske tekster
EXTT0=
EXTT1=
EXTT2=
EXTT3=
EXTT4=
EXTT5=
EXTT6=
EXTT7=
EXTT8=
EXTT9=
EXTT10=
PLAYORDER=
